<svg xmlns="http://www.w3.org/2000/svg" data-name="Layer 1"  viewBox="10 10 69 69">
  <path fill="white" d="M62.83 36.12a7.94 7.94 0 1 0 1.35 12.41 8.25 8.25 0 0 0 1.55-2.15 1.59 1.59 0 0 1 2.48-.38 21.92 21.92 0 0 1 4.29 5.58c-.5-10.32-9.66-15.45-9.67-15.46ZM43.42 56a7.93 7.93 0 0 0-3.28 8 8.28 8.28 0 0 0 .91 2.47 1.57 1.57 0 0 1-1 2.28 21.67 21.67 0 0 1-7 .44c8.79 5.33 18.16.61 18.17.6A7.94 7.94 0 1 0 43.42 56Zm-.12-12.46A7.93 7.93 0 0 0 37.68 37a8.21 8.21 0 0 0-2.61-.31 1.56 1.56 0 0 1-1.57-1.93 22.24 22.24 0 0 1 2.79-6.48c-8.74 5.41-8.78 15.91-8.78 15.92a7.94 7.94 0 1 0 15.79-.66Z"/>
</svg>
